<svg width="203" height="54" viewBox="0 0 203 54" fill="none" xmlns="http://www.w3.org/2000/svg">
<path d="M64.492 22.864C64.492 24.328 64.156 25.672 63.484 26.896C62.812 28.096 61.78 29.068 60.388 29.812C58.996 30.556 57.268 30.928 55.204 30.928H51.388V40H45.232V14.728H55.204C57.22 14.728 58.924 15.076 60.316 15.772C61.708 16.468 62.752 17.428 63.448 18.652C64.144 19.876 64.492 21.28 64.492 22.864ZM54.736 26.032C55.912 26.032 56.788 25.756 57.364 25.204C57.94 24.652 58.228 23.872 58.228 22.864C58.228 21.856 57.94 21.076 57.364 20.524C56.788 19.972 55.912 19.696 54.736 19.696H51.388V26.032H54.736ZM72.5928 17.824C71.5128 17.824 70.6248 17.512 69.9288 16.888C69.2568 16.24 68.9208 15.448 68.9208 14.512C68.9208 13.552 69.2568 12.76 69.9288 12.136C70.6248 11.488 71.5128 11.164 72.5928 11.164C73.6488 11.164 74.5128 11.488 75.1848 12.136C75.8808 12.76 76.2288 13.552 76.2288 14.512C76.2288 15.448 75.8808 16.24 75.1848 16.888C74.5128 17.512 73.6488 17.824 72.5928 17.824ZM75.6528 19.912V40H69.4968V19.912H75.6528ZM88.07 22.756C88.67 21.82 89.498 21.064 90.554 20.488C91.61 19.912 92.846 19.624 94.262 19.624C95.918 19.624 97.418 20.044 98.762 20.884C100.106 21.724 101.162 22.924 101.93 24.484C102.722 26.044 103.118 27.856 103.118 29.92C103.118 31.984 102.722 33.808 101.93 35.392C101.162 36.952 100.106 38.164 98.762 39.028C97.418 39.868 95.918 40.288 94.262 40.288C92.87 40.288 91.634 40 90.554 39.424C89.498 38.848 88.67 38.104 88.07 37.192V49.576H81.914V19.912H88.07V22.756ZM96.854 29.92C96.854 28.384 96.422 27.184 95.558 26.32C94.718 25.432 93.674 24.988 92.426 24.988C91.202 24.988 90.158 25.432 89.294 26.32C88.454 27.208 88.034 28.42 88.034 29.956C88.034 31.492 88.454 32.704 89.294 33.592C90.158 34.48 91.202 34.924 92.426 34.924C93.65 34.924 94.694 34.48 95.558 33.592C96.422 32.68 96.854 31.456 96.854 29.92ZM111.244 17.824C110.164 17.824 109.276 17.512 108.58 16.888C107.908 16.24 107.572 15.448 107.572 14.512C107.572 13.552 107.908 12.76 108.58 12.136C109.276 11.488 110.164 11.164 111.244 11.164C112.3 11.164 113.164 11.488 113.836 12.136C114.532 12.76 114.88 13.552 114.88 14.512C114.88 15.448 114.532 16.24 113.836 16.888C113.164 17.512 112.3 17.824 111.244 17.824ZM114.304 19.912V40H108.148V19.912H114.304ZM137.017 14.728V19.66H126.721V24.988H134.425V29.776H126.721V40H120.565V14.728H137.017ZM145.148 17.824C144.068 17.824 143.18 17.512 142.484 16.888C141.812 16.24 141.476 15.448 141.476 14.512C141.476 13.552 141.812 12.76 142.484 12.136C143.18 11.488 144.068 11.164 145.148 11.164C146.204 11.164 147.068 11.488 147.74 12.136C148.436 12.76 148.784 13.552 148.784 14.512C148.784 15.448 148.436 16.24 147.74 16.888C147.068 17.512 146.204 17.824 145.148 17.824ZM148.208 19.912V40H142.052V19.912H148.208ZM160.626 13.36V40H154.47V13.36H160.626ZM192.519 19.696C195.015 19.696 196.995 20.452 198.459 21.964C199.947 23.476 200.691 25.576 200.691 28.264V40H194.571V29.092C194.571 27.796 194.223 26.8 193.527 26.104C192.855 25.384 191.919 25.024 190.719 25.024C189.519 25.024 188.571 25.384 187.875 26.104C187.203 26.8 186.867 27.796 186.867 29.092V40H180.747V29.092C180.747 27.796 180.399 26.8 179.703 26.104C179.031 25.384 178.095 25.024 176.895 25.024C175.695 25.024 174.747 25.384 174.051 26.104C173.379 26.8 173.043 27.796 173.043 29.092V40H166.887V19.912H173.043V22.432C173.667 21.592 174.483 20.932 175.491 20.452C176.499 19.948 177.639 19.696 178.911 19.696C180.423 19.696 181.767 20.02 182.943 20.668C184.143 21.316 185.079 22.24 185.751 23.44C186.447 22.336 187.395 21.436 188.595 20.74C189.795 20.044 191.103 19.696 192.519 19.696Z" fill="white"/>
<circle cx="20" cy="27" r="20" fill="#E53637"/>
<g clip-path="url(#clip0)">
<path d="M26.4033 22.3291C24.0922 17.3731 18.201 15.229 13.2449 17.54C8.28887 19.8511 6.1447 25.7423 8.4558 30.6983C9.56561 33.0783 11.5754 34.9199 14.0431 35.8181C16.5102 36.7198 19.235 36.6008 21.6141 35.4875C26.5702 33.1763 28.7144 27.2852 26.4033 22.3291ZM18.9943 21.0081C19.5867 20.1583 20.756 19.9497 21.6058 20.5421C22.4557 21.1346 22.6643 22.3038 22.0718 23.1537C21.4794 24.0035 20.3102 24.2122 19.4604 23.6198C18.6116 23.0266 18.4031 21.8583 18.9943 21.0081ZM15.869 32.0123C15.2766 32.8621 14.1074 33.0708 13.2575 32.4784C12.4077 31.886 12.1989 30.7167 12.7913 29.8668C12.7914 29.8668 12.7914 29.8668 12.7914 29.8667C13.3839 29.0169 14.5531 28.8083 15.403 29.4007C16.2528 29.9932 16.4615 31.1625 15.869 32.0123ZM13.9153 26.2106C13.8228 27.2424 12.9115 28.0039 11.8797 27.9115C10.8484 27.8178 10.0874 26.9072 10.1786 25.8757C10.2711 24.8438 11.1825 24.0823 12.2144 24.1748C13.2463 24.2672 14.0078 25.1787 13.9153 26.2106ZM20.5085 33.1164C19.5696 33.5542 18.4535 33.1481 18.0156 32.2091C17.5778 31.2701 17.984 30.1541 18.923 29.7163C19.8619 29.2784 20.978 29.6846 21.4158 30.6236C21.8536 31.5625 21.4474 32.6786 20.5085 33.1164ZM16.1597 27.1059C15.8326 26.4045 16.1361 25.5708 16.8374 25.2438C17.5387 24.9168 18.3725 25.2202 18.6995 25.9215C19.0265 26.6229 18.7231 27.4566 18.0218 27.7836C17.3204 28.1107 16.4867 27.8072 16.1597 27.1059ZM15.9362 23.3111C14.9973 23.749 13.8812 23.3427 13.4434 22.4038C13.0056 21.4649 13.4117 20.3488 14.3507 19.911C15.2896 19.4732 16.4057 19.8794 16.8435 20.8183C17.2814 21.7573 16.8752 22.8733 15.9362 23.3111ZM24.6895 27.1552C24.597 28.187 23.6856 28.9485 22.6538 28.8561C21.6217 28.7645 20.8587 27.8544 20.9487 26.8222L20.9528 26.8203C21.0452 25.7884 21.9567 25.0269 22.9886 25.1194C24.0204 25.2118 24.7819 26.1233 24.6895 27.1552Z" fill="black"/>
<path d="M34.0725 29.3773C33.7548 29.1274 33.3995 28.9294 33.0197 28.7908C32.578 28.6264 32.1124 28.5353 31.6413 28.5215C30.4809 28.4888 29.1634 28.9252 28.0525 30.3152C27.7269 30.7167 27.3695 31.0912 26.9836 31.4351C26.2061 32.9492 25.0784 34.2559 23.6943 35.2466C25.159 34.8142 26.5883 33.9673 27.8429 33.2294C28.4697 32.8417 29.1173 32.4886 29.7828 32.172C31.2697 31.5237 31.915 33.1172 31.9812 33.2968C32.0544 33.5367 32.3083 33.6719 32.5482 33.5986C32.6469 33.5685 32.7324 33.5056 32.7906 33.4205L34.6579 30.7456C34.7091 30.6726 34.7376 30.5861 34.7399 30.4969C34.7488 30.1344 34.502 29.7233 34.0725 29.3773Z" fill="black"/>
</g>
<defs>
<clipPath id="clip0">
<rect width="24" height="24" fill="white" transform="translate(4 21.1428) rotate(-25)"/>
</clipPath>
</defs>
</svg>
